<svg xmlns="http://www.w3.org/2000/svg" version="1.1" xmlns:xlink="http://www.w3.org/1999/xlink" width="1000" height="1000"><g clip-path="url(#SvgjsClipPath1038)"><rect width="1000" height="1000" fill="#ffffff"></rect><g transform="matrix(3.501945525291829,0,0,3.501945525291829,51.750972762645915,50)"><svg xmlns="http://www.w3.org/2000/svg" version="1.1" xmlns:xlink="http://www.w3.org/1999/xlink" width="256" height="257"><svg width="256" height="257" viewBox="0 0 256 257" fill="none" xmlns="http://www.w3.org/2000/svg">
<g clip-path="url(#clip0_513_6149)">
<path d="M256 69.4657C255.867 72.9696 256.266 77.8285 255.201 81.1603C254.579 83.0983 251.52 84.6754 250.421 86.9299C248.328 91.2279 247.618 99.724 246.158 104.877C236.687 138.212 217.302 150.395 182.613 144.27C160.092 140.294 150.083 126.584 143.06 106.093C141.55 101.69 139.535 90.978 137.459 87.8184C134.012 82.5708 123.126 82.4431 119.773 87.8406C112.895 109.175 109.414 130.266 86.8932 140.466C76.7511 145.059 59.3925 146.769 48.3899 145.542C27.0399 143.16 15.1825 125.945 9.68684 106.793C8.20467 101.623 7.00005 89.3788 4.53531 85.8471C3.22523 83.9646 0.782689 82.9373 0.216465 80.1719C-0.0777498 78.7281 -0.138813 69.2936 0.432962 68.8549C5.42906 66.9058 10.2642 64.5457 15.3435 62.7965C40.1075 54.2616 79.2492 51.7516 103.541 62.3301C112.995 66.4449 119.74 73.7082 130.842 72.8197C138.514 72.2089 147.135 65.0844 154.435 61.9914C178.655 51.7183 216.642 54.2616 241.15 62.9465C243.571 63.8072 255.189 69.5046 256 69.4713V69.4657ZM20.8281 72.9919C8.50443 85.3251 17.3864 117.705 28.6609 128.905C43.4938 143.643 78.6496 141.488 93.3659 127.506C104.996 116.455 115.665 85.3306 101.687 73.064C87.4094 60.542 34.4786 59.3315 20.8281 72.9863V72.9919ZM186.499 63.524C160.253 65.3676 143.832 73.8359 151.015 103.134C157.771 130.71 179.199 142.36 206.8 138.251C229.804 134.825 241.317 111.369 241.034 89.7675C240.673 62.1191 207.121 62.0747 186.499 63.524Z" fill="#0D0C07"></path>
<path d="M41.1678 196.075C25.8853 189.55 10.1587 172.958 11.7575 155.271C11.813 154.633 12.629 149.735 13.4062 150.54C15.0327 158.137 19.2239 166.794 26.013 170.975C40.5794 179.943 52.5811 168.565 63.9278 160.536C76.0128 151.978 85.3111 142.994 101.421 142.755C123.664 142.427 137.215 163.256 119.745 180.554C102.159 197.963 63.9056 205.787 41.1678 196.075Z" fill="#0D0C07"></path>
<path d="M239.352 150.54C240.679 150.373 240.24 150.518 240.523 151.312C247.695 171.397 224.497 192.859 207.022 197.885C185.366 204.115 149.467 195.402 134.417 178.038C121.877 163.573 130.987 145.598 148.745 143.471C178.433 139.917 185.461 161.085 207.133 171.38C224.447 179.61 236.482 166.621 239.357 150.534L239.352 150.54Z" fill="#0D0C07"></path>
<path d="M20.8281 72.9924C34.4786 59.3376 87.4095 60.5426 101.687 73.0702C115.665 85.3312 105.001 116.456 93.3659 127.512C78.6496 141.494 43.4882 143.643 28.6609 128.911C17.3864 117.705 8.49888 85.3257 20.8281 72.9924Z" fill="#FFCB00"></path>
<path d="M186.499 63.5248C207.122 62.0754 240.673 62.1198 241.034 89.7682C241.317 111.375 229.804 134.825 206.8 138.252C179.199 142.361 157.771 130.711 151.015 103.134C143.832 73.8311 160.258 65.3683 186.499 63.5248Z" fill="#FFCB00"></path>
</g>
<defs>
<clipPath id="clip0_513_6149">
<rect width="256" height="145" fill="white" transform="translate(0 55.2949)"></rect>
</clipPath>
<clipPath id="SvgjsClipPath1038"><rect width="1000" height="1000" x="0" y="0" rx="350" ry="350"></rect></clipPath></defs>
</svg></svg></g></g></svg>