<svg width="140" height="20" viewBox="0 0 140 20" fill="none" xmlns="http://www.w3.org/2000/svg">
<g clip-path="url(#clip0_1216_4247)">
<path d="M24 6.73876C23.9875 7.06715 24.025 7.52252 23.9251 7.83478C23.8668 8.01641 23.58 8.16421 23.477 8.3755C23.2808 8.77831 23.2142 9.57456 23.0773 10.0575C22.1894 13.1816 20.3721 14.3235 17.12 13.7494C15.0086 13.3768 14.0703 12.0919 13.4119 10.1715C13.2704 9.7588 13.0815 8.75489 12.8868 8.45877C12.5636 7.96697 11.5431 7.955 11.2287 8.46085C10.5839 10.4603 10.2576 12.4369 8.14624 13.3929C7.19542 13.8233 5.56805 13.9836 4.53656 13.8686C2.535 13.6453 1.42337 12.032 0.908149 10.2371C0.769195 9.75255 0.656263 8.60501 0.425193 8.27402C0.302373 8.09759 0.0733847 8.00131 0.0203012 7.74214C-0.00728142 7.60683 -0.0130061 6.72263 0.0405978 6.68151C0.508982 6.49884 0.962274 6.27766 1.43846 6.11373C3.76009 5.31383 7.42962 5.0786 9.707 6.07001C10.5933 6.45565 11.2256 7.13636 12.2665 7.0531C12.9857 6.99585 13.7939 6.32814 14.4783 6.03826C16.7489 5.07548 20.3102 5.31383 22.6079 6.12778C22.8348 6.20844 23.924 6.7424 24 6.73928V6.73876ZM1.95265 7.06923C0.797298 8.2251 1.62998 11.2597 2.68697 12.3094C4.07755 13.6906 7.37341 13.4887 8.75306 12.1783C9.84336 11.1426 10.8436 8.22562 9.53318 7.076C8.19464 5.90243 3.23238 5.78898 1.95265 7.06871V7.06923ZM17.4843 6.1819C15.0237 6.35468 13.4843 7.14834 14.1577 9.89411C14.7911 12.4785 16.7999 13.5704 19.3875 13.1853C21.5441 12.8642 22.6235 10.6659 22.5969 8.64144C22.5631 6.05023 19.4176 6.04607 17.4843 6.1819Z" fill="white"/>
<path d="M3.85944 18.6044C2.4267 17.9929 0.952335 16.4379 1.10222 14.7803C1.10742 14.7205 1.18392 14.2615 1.25678 14.3369C1.40927 15.0489 1.80219 15.8602 2.43867 16.2521C3.80427 17.0926 4.92944 16.0262 5.99319 15.2737C7.12616 14.4717 7.99787 13.6297 9.50815 13.6073C11.5935 13.5766 12.8639 15.5287 11.2261 17.1498C9.57737 18.7814 5.99111 19.5147 3.85944 18.6044Z" fill="white"/>
<path d="M22.4392 14.337C22.5636 14.3214 22.5225 14.3349 22.549 14.4093C23.2214 16.2917 21.0465 18.3031 19.4082 18.7741C17.378 19.358 14.0124 18.5415 12.6016 16.9141C11.4259 15.5584 12.2799 13.8738 13.9448 13.6745C16.728 13.3414 17.3869 15.3253 19.4186 16.2901C21.0418 17.0614 22.1701 15.8441 22.4397 14.3364L22.4392 14.337Z" fill="white"/>
<path d="M1.95263 7.06919C3.23236 5.78946 8.19463 5.90239 9.53317 7.07647C10.8436 8.22558 9.84386 11.1426 8.75305 12.1787C7.3734 13.4892 4.07701 13.6906 2.68695 12.3099C1.62997 11.2597 0.796763 8.22506 1.95263 7.06919Z" fill="#FFD429"/>
<path d="M17.4843 6.18199C19.4177 6.04616 22.5631 6.05033 22.5969 8.64153C22.6235 10.6665 21.5441 12.8643 19.3875 13.1854C16.7999 13.5705 14.7911 12.4786 14.1577 9.8942C13.4843 7.14791 15.0242 6.35478 17.4843 6.18199Z" fill="#FFD429"/>
</g>
<path d="M34.4327 19.288C33.4247 19.288 32.5447 19.064 31.7927 18.616C31.0567 18.168 30.4887 17.544 30.0887 16.744C29.7047 15.944 29.5127 15.008 29.5127 13.936V5.944H32.6567V13.672C32.6567 14.216 32.7607 14.696 32.9687 15.112C33.1927 15.512 33.5047 15.832 33.9047 16.072C34.3207 16.296 34.7847 16.408 35.2967 16.408C35.8087 16.408 36.2647 16.296 36.6647 16.072C37.0647 15.832 37.3767 15.504 37.6007 15.088C37.8247 14.672 37.9367 14.176 37.9367 13.6V5.944H41.0807V19H38.1047V16.432L38.3687 16.888C38.0647 17.688 37.5607 18.288 36.8567 18.688C36.1687 19.088 35.3607 19.288 34.4327 19.288ZM43.0432 19V5.944H45.9952V8.848L45.7552 8.416C46.0592 7.44 46.5312 6.76 47.1712 6.376C47.8272 5.992 48.6112 5.8 49.5232 5.8H50.2912V8.584H49.1632C48.2672 8.584 47.5472 8.864 47.0032 9.424C46.4592 9.968 46.1872 10.736 46.1872 11.728V19H43.0432ZM58.1878 19.288C57.2438 19.288 56.3718 19.104 55.5718 18.736C54.7878 18.352 54.1638 17.808 53.6998 17.104L54.0118 16.48V19H51.0598V0.831999H54.2038V8.536L53.7238 7.888C54.1718 7.184 54.7798 6.64 55.5478 6.256C56.3158 5.856 57.2038 5.656 58.2118 5.656C59.4438 5.656 60.5558 5.96 61.5478 6.568C62.5398 7.176 63.3238 7.992 63.8998 9.016C64.4918 10.04 64.7878 11.192 64.7878 12.472C64.7878 13.736 64.4998 14.888 63.9238 15.928C63.3478 16.968 62.5638 17.792 61.5718 18.4C60.5798 18.992 59.4518 19.288 58.1878 19.288ZM57.8278 16.408C58.5478 16.408 59.1878 16.24 59.7478 15.904C60.3078 15.568 60.7398 15.104 61.0438 14.512C61.3638 13.92 61.5238 13.24 61.5238 12.472C61.5238 11.704 61.3638 11.032 61.0438 10.456C60.7398 9.864 60.3078 9.4 59.7478 9.064C59.1878 8.712 58.5478 8.536 57.8278 8.536C57.1398 8.536 56.5158 8.704 55.9558 9.04C55.4118 9.376 54.9798 9.848 54.6598 10.456C54.3558 11.048 54.2038 11.72 54.2038 12.472C54.2038 13.24 54.3558 13.92 54.6598 14.512C54.9798 15.104 55.4118 15.568 55.9558 15.904C56.5158 16.24 57.1398 16.408 57.8278 16.408ZM70.1848 19.288C69.2728 19.288 68.4808 19.136 67.8088 18.832C67.1368 18.528 66.6168 18.096 66.2488 17.536C65.8808 16.96 65.6968 16.296 65.6968 15.544C65.6968 14.824 65.8568 14.184 66.1768 13.624C66.4968 13.048 66.9928 12.568 67.6648 12.184C68.3368 11.8 69.1848 11.528 70.2088 11.368L74.4808 10.672V13.072L70.8088 13.696C70.1848 13.808 69.7208 14.008 69.4168 14.296C69.1128 14.584 68.9608 14.96 68.9608 15.424C68.9608 15.872 69.1288 16.232 69.4648 16.504C69.8168 16.76 70.2488 16.888 70.7608 16.888C71.4168 16.888 71.9928 16.752 72.4888 16.48C73.0008 16.192 73.3928 15.8 73.6648 15.304C73.9528 14.808 74.0968 14.264 74.0968 13.672V10.312C74.0968 9.752 73.8728 9.288 73.4248 8.92C72.9928 8.536 72.4168 8.344 71.6968 8.344C71.0248 8.344 70.4248 8.528 69.8968 8.896C69.3848 9.248 69.0088 9.72 68.7688 10.312L66.2008 9.064C66.4568 8.376 66.8568 7.784 67.4008 7.288C67.9608 6.776 68.6168 6.376 69.3688 6.088C70.1208 5.8 70.9368 5.656 71.8168 5.656C72.8888 5.656 73.8328 5.856 74.6488 6.256C75.4648 6.64 76.0968 7.184 76.5448 7.888C77.0088 8.576 77.2408 9.384 77.2408 10.312V19H74.2648V16.768L74.9368 16.72C74.6008 17.28 74.2008 17.752 73.7368 18.136C73.2728 18.504 72.7448 18.792 72.1528 19C71.5608 19.192 70.9048 19.288 70.1848 19.288ZM79.1867 19V5.944H82.1387V8.512L81.8987 8.056C82.2027 7.272 82.6987 6.68 83.3867 6.28C84.0907 5.864 84.9067 5.656 85.8347 5.656C86.7947 5.656 87.6427 5.864 88.3787 6.28C89.1307 6.696 89.7147 7.28 90.1307 8.032C90.5467 8.768 90.7547 9.624 90.7547 10.6V19H87.6107V11.344C87.6107 10.768 87.4987 10.272 87.2747 9.856C87.0507 9.44 86.7387 9.12 86.3387 8.896C85.9547 8.656 85.4987 8.536 84.9707 8.536C84.4587 8.536 84.0027 8.656 83.6027 8.896C83.2027 9.12 82.8907 9.44 82.6667 9.856C82.4427 10.272 82.3307 10.768 82.3307 11.344V19H79.1867Z" fill="white"/>
<path d="M98.6452 19.288C97.3012 19.288 96.1252 18.984 95.1172 18.376C94.1092 17.768 93.3252 16.944 92.7652 15.904C92.2052 14.864 91.9252 13.712 91.9252 12.448C91.9252 11.136 92.2052 9.976 92.7652 8.968C93.3412 7.944 94.1172 7.136 95.0932 6.544C96.0852 5.952 97.1892 5.656 98.4052 5.656C99.4292 5.656 100.325 5.824 101.093 6.16C101.877 6.496 102.541 6.96 103.085 7.552C103.629 8.144 104.045 8.824 104.333 9.592C104.621 10.344 104.765 11.16 104.765 12.04C104.765 12.264 104.749 12.496 104.717 12.736C104.701 12.976 104.661 13.184 104.597 13.36H94.5172V10.96H102.821L101.333 12.088C101.477 11.352 101.437 10.696 101.213 10.12C101.005 9.544 100.653 9.088 100.157 8.752C99.6772 8.416 99.0932 8.248 98.4052 8.248C97.7492 8.248 97.1652 8.416 96.6532 8.752C96.1412 9.072 95.7492 9.552 95.4772 10.192C95.2212 10.816 95.1252 11.576 95.1892 12.472C95.1252 13.272 95.2292 13.984 95.5012 14.608C95.7892 15.216 96.2052 15.688 96.7492 16.024C97.3092 16.36 97.9492 16.528 98.6692 16.528C99.3892 16.528 99.9972 16.376 100.493 16.072C101.005 15.768 101.405 15.36 101.693 14.848L104.237 16.096C103.981 16.72 103.581 17.272 103.037 17.752C102.493 18.232 101.845 18.608 101.093 18.88C100.357 19.152 99.5412 19.288 98.6452 19.288ZM110.102 19.288C109.19 19.288 108.398 19.136 107.726 18.832C107.054 18.528 106.534 18.096 106.166 17.536C105.798 16.96 105.614 16.296 105.614 15.544C105.614 14.824 105.774 14.184 106.094 13.624C106.414 13.048 106.91 12.568 107.582 12.184C108.254 11.8 109.102 11.528 110.126 11.368L114.398 10.672V13.072L110.726 13.696C110.102 13.808 109.638 14.008 109.334 14.296C109.03 14.584 108.878 14.96 108.878 15.424C108.878 15.872 109.046 16.232 109.382 16.504C109.734 16.76 110.166 16.888 110.678 16.888C111.334 16.888 111.91 16.752 112.406 16.48C112.918 16.192 113.31 15.8 113.582 15.304C113.87 14.808 114.014 14.264 114.014 13.672V10.312C114.014 9.752 113.79 9.288 113.342 8.92C112.91 8.536 112.334 8.344 111.614 8.344C110.942 8.344 110.342 8.528 109.814 8.896C109.302 9.248 108.926 9.72 108.686 10.312L106.118 9.064C106.374 8.376 106.774 7.784 107.318 7.288C107.878 6.776 108.534 6.376 109.286 6.088C110.038 5.8 110.854 5.656 111.734 5.656C112.806 5.656 113.75 5.856 114.566 6.256C115.382 6.64 116.014 7.184 116.462 7.888C116.926 8.576 117.158 9.384 117.158 10.312V19H114.182V16.768L114.854 16.72C114.518 17.28 114.118 17.752 113.654 18.136C113.19 18.504 112.662 18.792 112.07 19C111.478 19.192 110.822 19.288 110.102 19.288ZM124.821 19.144C123.349 19.144 122.205 18.744 121.389 17.944C120.589 17.128 120.189 15.984 120.189 14.512V8.752H117.933V5.944H118.173C118.813 5.944 119.309 5.776 119.661 5.44C120.013 5.104 120.189 4.616 120.189 3.976V2.968H123.333V5.944H126.333V8.752H123.333V14.344C123.333 14.776 123.405 15.144 123.549 15.448C123.709 15.752 123.949 15.984 124.269 16.144C124.605 16.304 125.029 16.384 125.541 16.384C125.653 16.384 125.781 16.376 125.925 16.36C126.085 16.344 126.237 16.328 126.381 16.312V19C126.157 19.032 125.901 19.064 125.613 19.096C125.325 19.128 125.061 19.144 124.821 19.144ZM132.791 19.288C131.399 19.288 130.183 18.96 129.143 18.304C128.119 17.632 127.415 16.728 127.031 15.592L129.383 14.464C129.719 15.2 130.183 15.776 130.775 16.192C131.383 16.608 132.055 16.816 132.791 16.816C133.367 16.816 133.823 16.688 134.159 16.432C134.495 16.176 134.663 15.84 134.663 15.424C134.663 15.168 134.591 14.96 134.447 14.8C134.319 14.624 134.135 14.48 133.895 14.368C133.671 14.24 133.423 14.136 133.151 14.056L131.015 13.456C129.911 13.136 129.071 12.648 128.495 11.992C127.935 11.336 127.655 10.56 127.655 9.664C127.655 8.864 127.855 8.168 128.255 7.576C128.671 6.968 129.239 6.496 129.959 6.16C130.695 5.824 131.535 5.656 132.479 5.656C133.711 5.656 134.799 5.952 135.743 6.544C136.687 7.136 137.359 7.968 137.759 9.04L135.359 10.168C135.135 9.576 134.759 9.104 134.231 8.752C133.703 8.4 133.111 8.224 132.455 8.224C131.927 8.224 131.511 8.344 131.207 8.584C130.903 8.824 130.751 9.136 130.751 9.52C130.751 9.76 130.815 9.968 130.943 10.144C131.071 10.32 131.247 10.464 131.471 10.576C131.711 10.688 131.983 10.792 132.287 10.888L134.375 11.512C135.447 11.832 136.271 12.312 136.847 12.952C137.439 13.592 137.735 14.376 137.735 15.304C137.735 16.088 137.527 16.784 137.111 17.392C136.695 17.984 136.119 18.448 135.383 18.784C134.647 19.12 133.783 19.288 132.791 19.288Z" fill="#FFD429"/>
<defs>
<clipPath id="clip0_1216_4247">
<rect width="24" height="13.5894" fill="white" transform="translate(0 5.41064)"/>
</clipPath>
</defs>
</svg>
