<svg width="105" height="20" viewBox="0 0 105 20" fill="none" xmlns="http://www.w3.org/2000/svg">
<path d="M2.29913 19L8.37113 11.176L8.92313 11.752C8.68313 11.928 8.45113 12.072 8.22713 12.184C8.00313 12.296 7.76313 12.376 7.50713 12.424C7.25113 12.472 6.97913 12.496 6.69113 12.496C5.60313 12.496 4.63513 12.248 3.78713 11.752C2.93913 11.256 2.26713 10.584 1.77113 9.736C1.29113 8.872 1.05113 7.896 1.05113 6.808C1.05113 5.656 1.31513 4.632 1.84313 3.736C2.38713 2.84 3.12313 2.136 4.05113 1.624C4.99513 1.096 6.06713 0.831999 7.26713 0.831999C8.48313 0.831999 9.55513 1.088 10.4831 1.6C11.4111 2.112 12.1391 2.816 12.6671 3.712C13.2111 4.592 13.4831 5.608 13.4831 6.76C13.4831 7.336 13.4191 7.912 13.2911 8.488C13.1631 9.064 12.9311 9.68 12.5951 10.336C12.2751 10.976 11.8111 11.704 11.2031 12.52L6.21113 19H2.29913ZM7.26713 9.76C7.82713 9.76 8.32313 9.64 8.75513 9.4C9.20313 9.144 9.55513 8.792 9.81113 8.344C10.0671 7.88 10.1951 7.36 10.1951 6.784C10.1951 6.176 10.0591 5.648 9.78713 5.2C9.53113 4.752 9.18713 4.4 8.75513 4.144C8.32313 3.888 7.82713 3.76 7.26713 3.76C6.72313 3.76 6.22713 3.888 5.77913 4.144C5.33113 4.4 4.97113 4.752 4.69913 5.2C4.44313 5.648 4.31513 6.176 4.31513 6.784C4.31513 7.36 4.44313 7.88 4.69913 8.344C4.97113 8.792 5.33113 9.144 5.77913 9.4C6.22713 9.64 6.72313 9.76 7.26713 9.76ZM14.9846 19V5.944H17.9366V8.968L17.6006 8.464C17.8406 7.52 18.3206 6.816 19.0406 6.352C19.7606 5.888 20.6086 5.656 21.5846 5.656C22.6566 5.656 23.6006 5.936 24.4166 6.496C25.2326 7.056 25.7606 7.792 26.0006 8.704L25.1126 8.776C25.5126 7.736 26.1126 6.96 26.9126 6.448C27.7126 5.92 28.6326 5.656 29.6726 5.656C30.6006 5.656 31.4246 5.864 32.1446 6.28C32.8806 6.696 33.4566 7.28 33.8726 8.032C34.2886 8.768 34.4966 9.624 34.4966 10.6V19H31.3526V11.344C31.3526 10.768 31.2486 10.272 31.0406 9.856C30.8326 9.44 30.5446 9.12 30.1766 8.896C29.8086 8.656 29.3606 8.536 28.8326 8.536C28.3366 8.536 27.8966 8.656 27.5126 8.896C27.1286 9.12 26.8326 9.44 26.6246 9.856C26.4166 10.272 26.3126 10.768 26.3126 11.344V19H23.1686V11.344C23.1686 10.768 23.0646 10.272 22.8566 9.856C22.6486 9.44 22.3526 9.12 21.9686 8.896C21.6006 8.656 21.1606 8.536 20.6486 8.536C20.1526 8.536 19.7126 8.656 19.3286 8.896C18.9446 9.12 18.6486 9.44 18.4406 9.856C18.2326 10.272 18.1286 10.768 18.1286 11.344V19H14.9846ZM42.3885 19.288C41.0445 19.288 39.8685 18.984 38.8605 18.376C37.8525 17.768 37.0685 16.944 36.5085 15.904C35.9485 14.864 35.6685 13.712 35.6685 12.448C35.6685 11.136 35.9485 9.976 36.5085 8.968C37.0845 7.944 37.8605 7.136 38.8365 6.544C39.8285 5.952 40.9325 5.656 42.1485 5.656C43.1725 5.656 44.0685 5.824 44.8365 6.16C45.6205 6.496 46.2845 6.96 46.8285 7.552C47.3725 8.144 47.7885 8.824 48.0765 9.592C48.3645 10.344 48.5085 11.16 48.5085 12.04C48.5085 12.264 48.4925 12.496 48.4605 12.736C48.4445 12.976 48.4045 13.184 48.3405 13.36H38.2605V10.96H46.5645L45.0765 12.088C45.2205 11.352 45.1805 10.696 44.9565 10.12C44.7485 9.544 44.3965 9.088 43.9005 8.752C43.4205 8.416 42.8365 8.248 42.1485 8.248C41.4925 8.248 40.9085 8.416 40.3965 8.752C39.8845 9.072 39.4925 9.552 39.2205 10.192C38.9645 10.816 38.8685 11.576 38.9325 12.472C38.8685 13.272 38.9725 13.984 39.2445 14.608C39.5325 15.216 39.9485 15.688 40.4925 16.024C41.0525 16.36 41.6925 16.528 42.4125 16.528C43.1325 16.528 43.7405 16.376 44.2365 16.072C44.7485 15.768 45.1485 15.36 45.4365 14.848L47.9805 16.096C47.7245 16.72 47.3245 17.272 46.7805 17.752C46.2365 18.232 45.5885 18.608 44.8365 18.88C44.1005 19.152 43.2845 19.288 42.3885 19.288ZM53.8449 19.288C52.9329 19.288 52.1409 19.136 51.4689 18.832C50.7969 18.528 50.2769 18.096 49.9089 17.536C49.5409 16.96 49.3569 16.296 49.3569 15.544C49.3569 14.824 49.5169 14.184 49.8369 13.624C50.1569 13.048 50.6529 12.568 51.3249 12.184C51.9969 11.8 52.8449 11.528 53.8689 11.368L58.1409 10.672V13.072L54.4689 13.696C53.8449 13.808 53.3809 14.008 53.0769 14.296C52.7729 14.584 52.6209 14.96 52.6209 15.424C52.6209 15.872 52.7889 16.232 53.1249 16.504C53.4769 16.76 53.9089 16.888 54.4209 16.888C55.0769 16.888 55.6529 16.752 56.1489 16.48C56.6609 16.192 57.0529 15.8 57.3249 15.304C57.6129 14.808 57.7569 14.264 57.7569 13.672V10.312C57.7569 9.752 57.5329 9.288 57.0849 8.92C56.6529 8.536 56.0769 8.344 55.3569 8.344C54.6849 8.344 54.0849 8.528 53.5569 8.896C53.0449 9.248 52.6689 9.72 52.4289 10.312L49.8609 9.064C50.1169 8.376 50.5169 7.784 51.0609 7.288C51.6209 6.776 52.2769 6.376 53.0289 6.088C53.7809 5.8 54.5969 5.656 55.4769 5.656C56.5489 5.656 57.4929 5.856 58.3089 6.256C59.1249 6.64 59.7569 7.184 60.2049 7.888C60.6689 8.576 60.9009 9.384 60.9009 10.312V19H57.9249V16.768L58.5969 16.72C58.2609 17.28 57.8609 17.752 57.3969 18.136C56.9329 18.504 56.4049 18.792 55.8129 19C55.2209 19.192 54.5649 19.288 53.8449 19.288ZM62.8468 19V0.831999H65.9908V19H62.8468ZM72.9017 19.288C71.5097 19.288 70.2937 18.96 69.2537 18.304C68.2297 17.632 67.5257 16.728 67.1417 15.592L69.4937 14.464C69.8297 15.2 70.2937 15.776 70.8857 16.192C71.4937 16.608 72.1657 16.816 72.9017 16.816C73.4777 16.816 73.9337 16.688 74.2697 16.432C74.6057 16.176 74.7737 15.84 74.7737 15.424C74.7737 15.168 74.7017 14.96 74.5577 14.8C74.4297 14.624 74.2457 14.48 74.0057 14.368C73.7817 14.24 73.5337 14.136 73.2617 14.056L71.1257 13.456C70.0217 13.136 69.1817 12.648 68.6057 11.992C68.0457 11.336 67.7657 10.56 67.7657 9.664C67.7657 8.864 67.9657 8.168 68.3657 7.576C68.7817 6.968 69.3497 6.496 70.0697 6.16C70.8057 5.824 71.6457 5.656 72.5897 5.656C73.8217 5.656 74.9097 5.952 75.8537 6.544C76.7977 7.136 77.4697 7.968 77.8697 9.04L75.4697 10.168C75.2457 9.576 74.8697 9.104 74.3417 8.752C73.8137 8.4 73.2217 8.224 72.5657 8.224C72.0377 8.224 71.6217 8.344 71.3177 8.584C71.0137 8.824 70.8617 9.136 70.8617 9.52C70.8617 9.76 70.9257 9.968 71.0537 10.144C71.1817 10.32 71.3577 10.464 71.5817 10.576C71.8217 10.688 72.0937 10.792 72.3977 10.888L74.4857 11.512C75.5577 11.832 76.3817 12.312 76.9577 12.952C77.5497 13.592 77.8457 14.376 77.8457 15.304C77.8457 16.088 77.6377 16.784 77.2217 17.392C76.8057 17.984 76.2297 18.448 75.4937 18.784C74.7577 19.12 73.8937 19.288 72.9017 19.288Z" fill="#0D0C07"/>
<path d="M80.7898 19V15.64H83.9578V19H80.7898ZM91.3721 19.288C90.4601 19.288 89.6681 19.136 88.9961 18.832C88.3241 18.528 87.8041 18.096 87.4361 17.536C87.0681 16.96 86.8841 16.296 86.8841 15.544C86.8841 14.824 87.0441 14.184 87.3641 13.624C87.6841 13.048 88.1801 12.568 88.8521 12.184C89.5241 11.8 90.3721 11.528 91.3961 11.368L95.6681 10.672V13.072L91.9961 13.696C91.3721 13.808 90.9081 14.008 90.6041 14.296C90.3001 14.584 90.1481 14.96 90.1481 15.424C90.1481 15.872 90.3161 16.232 90.6521 16.504C91.0041 16.76 91.4361 16.888 91.9481 16.888C92.6041 16.888 93.1801 16.752 93.6761 16.48C94.1881 16.192 94.5801 15.8 94.8521 15.304C95.1401 14.808 95.2841 14.264 95.2841 13.672V10.312C95.2841 9.752 95.0601 9.288 94.6121 8.92C94.1801 8.536 93.6041 8.344 92.8841 8.344C92.2121 8.344 91.6121 8.528 91.0841 8.896C90.5721 9.248 90.1961 9.72 89.9561 10.312L87.3881 9.064C87.6441 8.376 88.0441 7.784 88.5881 7.288C89.1481 6.776 89.8041 6.376 90.5561 6.088C91.3081 5.8 92.1241 5.656 93.0041 5.656C94.0761 5.656 95.0201 5.856 95.8361 6.256C96.6521 6.64 97.2841 7.184 97.7321 7.888C98.1961 8.576 98.4281 9.384 98.4281 10.312V19H95.4521V16.768L96.1241 16.72C95.7881 17.28 95.3881 17.752 94.9241 18.136C94.4601 18.504 93.9321 18.792 93.3401 19C92.7481 19.192 92.0921 19.288 91.3721 19.288ZM100.374 19V5.944H103.518V19H100.374ZM100.374 4.48V1.12H103.518V4.48H100.374Z" fill="#FFCB00"/>
</svg>
