<svg width="27" height="52" viewBox="0 0 27 52" fill="none" xmlns="http://www.w3.org/2000/svg">
<path d="M6.45102 22.272C4.95502 19.5147 4.20702 17.2853 4.20702 15.584C4.20702 13.8827 4.83768 12.372 6.09902 11.052C7.36035 9.732 8.97368 9.072 10.939 9.072C12.9337 9.072 14.4883 9.512 15.603 10.392C16.7177 11.2427 17.275 12.4307 17.275 13.956C17.275 15.4813 16.615 16.8747 15.295 18.136C13.9163 19.3973 12.6843 20.3653 11.599 21.04C10.543 21.7147 9.95635 22.096 9.83902 22.184C11.8337 25.0587 14.2977 27.772 17.231 30.324C17.7297 29.268 17.979 28.3 17.979 27.42C17.979 26.5107 17.803 25.8067 17.451 25.308C17.099 24.78 16.6883 24.4867 16.219 24.428C15.779 24.3693 15.559 24.1787 15.559 23.856C15.559 23.4453 15.7643 23.1227 16.175 22.888C16.5857 22.6533 17.187 22.536 17.979 22.536C18.8003 22.536 19.475 22.8587 20.003 23.504C20.5603 24.1493 20.839 24.9413 20.839 25.88C20.839 27.9333 20.179 29.8693 18.859 31.688C20.9123 33.3013 22.8483 34.4453 24.667 35.12C25.019 35.2373 25.2977 35.34 25.503 35.428C25.7084 35.4867 25.899 35.56 26.075 35.648C26.427 35.7947 26.603 36 26.603 36.264C26.603 36.5573 26.2804 36.88 25.635 37.232C25.019 37.6133 24.4617 37.804 23.963 37.804C21.675 37.804 19.0643 36.6307 16.131 34.284C13.931 35.8093 11.3937 36.572 8.51902 36.572C5.67368 36.572 3.59102 35.9707 2.27102 34.768C0.951016 33.536 0.291016 32.084 0.291016 30.412C0.291016 28.7107 0.819016 27.2587 1.87502 26.056C2.96035 24.824 4.48568 23.5627 6.45102 22.272ZM4.03102 29.18C4.03102 30.7347 4.60302 32.0547 5.74702 33.14C6.89102 34.2253 8.32835 34.768 10.059 34.768C11.7897 34.768 13.3883 34.2253 14.855 33.14C11.9803 30.5293 9.45768 27.4347 7.28702 23.856C5.11635 25.4693 4.03102 27.244 4.03102 29.18ZM8.91502 20.688C10.587 19.6027 11.8483 18.6053 12.699 17.696C13.579 16.7573 14.019 15.7307 14.019 14.616C14.019 13.472 13.6963 12.548 13.051 11.844C12.4057 11.14 11.4963 10.788 10.323 10.788C9.17902 10.788 8.32835 11.2133 7.77102 12.064C7.24302 12.8853 6.97902 13.9853 6.97902 15.364C6.97902 16.7133 7.62435 18.488 8.91502 20.688Z" fill="#0D0C07"/>
</svg>
